<mxfile host="app.diagrams.net" agent="Mozilla/5.0 (X11; Linux x86_64) AppleWebKit/537.36 (KHTML, like Gecko) Chrome/131.0.0.0 Safari/537.36 Edg/131.0.0.0" version="26.0.2">
  <diagram name="Page-1" id="H9irVcF_rrNOjkgV-mIr">
    <mxGraphModel dx="909" dy="626" grid="1" gridSize="10" guides="1" tooltips="1" connect="1" arrows="1" fold="1" page="1" pageScale="1" pageWidth="827" pageHeight="1169" math="0" shadow="0">
      <root>
        <mxCell id="0" />
        <mxCell id="1" parent="0" />
        <mxCell id="dl8DAiWBKm6dLVGj8xog-1" value="" style="strokeColor=#666666;html=1;verticalLabelPosition=bottom;labelBackgroundColor=#ffffff;verticalAlign=top;outlineConnect=0;shadow=0;dashed=0;shape=mxgraph.rackGeneral.rackCabinet3;fillColor2=#f4f4f4;container=1;collapsible=0;childLayout=rack;allowGaps=1;marginLeft=33;marginRight=9;marginTop=21;marginBottom=22;textColor=#666666;numDisp=ascend;" vertex="1" parent="1">
          <mxGeometry x="300" y="150" width="204" height="219" as="geometry" />
        </mxCell>
        <mxCell id="dl8DAiWBKm6dLVGj8xog-4" value="" style="strokeColor=#666666;html=1;labelPosition=right;align=left;spacingLeft=15;shadow=0;dashed=0;outlineConnect=0;shape=mxgraph.rack.general.cat5e_enhanced_patch_panel_48_ports;" vertex="1" parent="dl8DAiWBKm6dLVGj8xog-1">
          <mxGeometry x="33" y="21" width="162" height="30" as="geometry" />
        </mxCell>
        <mxCell id="dl8DAiWBKm6dLVGj8xog-3" value="" style="html=1;verticalLabelPosition=bottom;verticalAlign=top;outlineConnect=0;shadow=0;dashed=0;shape=mxgraph.rack.hpe_aruba.switches.j9781a_2530_48_front;" vertex="1" parent="dl8DAiWBKm6dLVGj8xog-1">
          <mxGeometry x="33" y="51" width="162" height="15" as="geometry" />
        </mxCell>
        <mxCell id="dl8DAiWBKm6dLVGj8xog-5" value="" style="shape=mxgraph.rack.apc.apc_smart_ups_5000_va_5u;html=1;labelPosition=right;align=left;spacingLeft=15;dashed=0;shadow=0;fillColor=#ffffff;" vertex="1" parent="dl8DAiWBKm6dLVGj8xog-1">
          <mxGeometry x="33" y="66" width="162" height="74" as="geometry" />
        </mxCell>
      </root>
    </mxGraphModel>
  </diagram>
</mxfile>
